<mxfile host="app.diagrams.net" agent="Mozilla/5.0 (Windows NT 10.0; Win64; x64) AppleWebKit/537.36 (KHTML, like Gecko) Chrome/138.0.0.0 Safari/537.36" version="27.1.6">
  <diagram name="Página-1" id="cxPWyqA24JBwAGh7WBXs">
    <mxGraphModel grid="1" page="1" gridSize="10" guides="1" tooltips="1" connect="1" arrows="1" fold="1" pageScale="1" pageWidth="827" pageHeight="1169" math="0" shadow="0">
      <root>
        <mxCell id="0" />
        <mxCell id="1" parent="0" />
        <mxCell id="SY-MzMTitLkkKKeFqSy7-1" value="CU012 Crear evento" style="swimlane;childLayout=stackLayout;resizeParent=1;resizeParentMax=0;startSize=20;horizontal=0;horizontalStack=1;" vertex="1" parent="1">
          <mxGeometry x="74" y="100" width="680" height="780" as="geometry">
            <mxRectangle x="200" y="80" width="40" height="50" as="alternateBounds" />
          </mxGeometry>
        </mxCell>
        <mxCell id="SY-MzMTitLkkKKeFqSy7-29" value="no" style="edgeStyle=orthogonalEdgeStyle;html=1;align=left;verticalAlign=bottom;endArrow=open;endSize=8;strokeColor=#ff0000;rounded=0;entryX=0.992;entryY=0.424;entryDx=0;entryDy=0;entryPerimeter=0;" edge="1" parent="SY-MzMTitLkkKKeFqSy7-1" source="SY-MzMTitLkkKKeFqSy7-28" target="SY-MzMTitLkkKKeFqSy7-21">
          <mxGeometry x="-1" relative="1" as="geometry">
            <mxPoint x="296" y="320" as="targetPoint" />
            <mxPoint x="586" y="380" as="sourcePoint" />
            <Array as="points">
              <mxPoint x="626" y="330" />
              <mxPoint x="326" y="330" />
              <mxPoint x="326" y="311" />
            </Array>
          </mxGeometry>
        </mxCell>
        <mxCell id="SY-MzMTitLkkKKeFqSy7-2" value="Usuario" style="swimlane;startSize=20;" vertex="1" parent="SY-MzMTitLkkKKeFqSy7-1">
          <mxGeometry x="20" width="290" height="780" as="geometry" />
        </mxCell>
        <mxCell id="SY-MzMTitLkkKKeFqSy7-3" value="" style="ellipse;html=1;shape=startState;fillColor=#000000;strokeColor=#ff0000;fillStyle=auto;" vertex="1" parent="SY-MzMTitLkkKKeFqSy7-2">
          <mxGeometry x="28" y="55" width="30" height="30" as="geometry" />
        </mxCell>
        <mxCell id="SY-MzMTitLkkKKeFqSy7-4" value="Pulsa el apartado &quot;Administrar eventos&quot;" style="rounded=1;whiteSpace=wrap;html=1;arcSize=40;fontColor=#000000;fillColor=#ffffc0;strokeColor=#ff0000;" vertex="1" parent="SY-MzMTitLkkKKeFqSy7-2">
          <mxGeometry x="130" y="50" width="150" height="40" as="geometry" />
        </mxCell>
        <mxCell id="SY-MzMTitLkkKKeFqSy7-5" value="" style="edgeStyle=orthogonalEdgeStyle;html=1;verticalAlign=bottom;endArrow=open;endSize=8;strokeColor=#ff0000;rounded=0;exitX=1;exitY=0.5;exitDx=0;exitDy=0;" edge="1" parent="SY-MzMTitLkkKKeFqSy7-2" source="SY-MzMTitLkkKKeFqSy7-3">
          <mxGeometry relative="1" as="geometry">
            <mxPoint x="130" y="70" as="targetPoint" />
            <mxPoint x="82" y="75" as="sourcePoint" />
            <Array as="points">
              <mxPoint x="130" y="70" />
            </Array>
          </mxGeometry>
        </mxCell>
        <mxCell id="SY-MzMTitLkkKKeFqSy7-6" value="Pulsar botón &quot;Crear evento&quot;" style="rounded=1;whiteSpace=wrap;html=1;arcSize=40;fontColor=#000000;fillColor=#ffffc0;strokeColor=#ff0000;" vertex="1" parent="SY-MzMTitLkkKKeFqSy7-2">
          <mxGeometry x="40" y="130" width="120" height="50" as="geometry" />
        </mxCell>
        <mxCell id="SY-MzMTitLkkKKeFqSy7-25" style="edgeStyle=orthogonalEdgeStyle;rounded=0;orthogonalLoop=1;jettySize=auto;html=1;entryX=0.5;entryY=0;entryDx=0;entryDy=0;strokeColor=light-dark(#ff0000, #ededed);" edge="1" parent="SY-MzMTitLkkKKeFqSy7-2" source="SY-MzMTitLkkKKeFqSy7-21" target="SY-MzMTitLkkKKeFqSy7-24">
          <mxGeometry relative="1" as="geometry" />
        </mxCell>
        <mxCell id="SY-MzMTitLkkKKeFqSy7-21" value="Llenar formulario" style="rounded=1;whiteSpace=wrap;html=1;arcSize=40;fontColor=#000000;fillColor=#ffffc0;strokeColor=#ff0000;" vertex="1" parent="SY-MzMTitLkkKKeFqSy7-2">
          <mxGeometry x="36" y="290" width="174" height="50" as="geometry" />
        </mxCell>
        <mxCell id="SY-MzMTitLkkKKeFqSy7-24" value="Pulsar botón &quot;Confirmar&quot;" style="rounded=1;whiteSpace=wrap;html=1;arcSize=40;fontColor=#000000;fillColor=#ffffc0;strokeColor=#ff0000;" vertex="1" parent="SY-MzMTitLkkKKeFqSy7-2">
          <mxGeometry x="36" y="370" width="174" height="50" as="geometry" />
        </mxCell>
        <mxCell id="SY-MzMTitLkkKKeFqSy7-7" style="edgeStyle=orthogonalEdgeStyle;rounded=0;orthogonalLoop=1;jettySize=auto;html=1;exitX=0;exitY=0.5;exitDx=0;exitDy=0;entryX=1;entryY=0.5;entryDx=0;entryDy=0;strokeColor=light-dark(#ff0000, #ededed);" edge="1" parent="SY-MzMTitLkkKKeFqSy7-1" source="SY-MzMTitLkkKKeFqSy7-14" target="SY-MzMTitLkkKKeFqSy7-6">
          <mxGeometry relative="1" as="geometry" />
        </mxCell>
        <mxCell id="SY-MzMTitLkkKKeFqSy7-8" style="edgeStyle=orthogonalEdgeStyle;rounded=0;orthogonalLoop=1;jettySize=auto;html=1;exitX=0.358;exitY=0.98;exitDx=0;exitDy=0;strokeColor=light-dark(#ff0000, #ededed);exitPerimeter=0;" edge="1" parent="SY-MzMTitLkkKKeFqSy7-1" source="SY-MzMTitLkkKKeFqSy7-6" target="SY-MzMTitLkkKKeFqSy7-16">
          <mxGeometry relative="1" as="geometry">
            <Array as="points">
              <mxPoint x="103" y="210" />
            </Array>
          </mxGeometry>
        </mxCell>
        <mxCell id="SY-MzMTitLkkKKeFqSy7-17" style="edgeStyle=orthogonalEdgeStyle;rounded=0;orthogonalLoop=1;jettySize=auto;html=1;exitX=1;exitY=0.5;exitDx=0;exitDy=0;entryX=0.5;entryY=0;entryDx=0;entryDy=0;strokeColor=light-dark(#ff0000, #ededed);" edge="1" parent="SY-MzMTitLkkKKeFqSy7-1" source="SY-MzMTitLkkKKeFqSy7-4" target="SY-MzMTitLkkKKeFqSy7-11">
          <mxGeometry relative="1" as="geometry" />
        </mxCell>
        <mxCell id="SY-MzMTitLkkKKeFqSy7-20" style="edgeStyle=orthogonalEdgeStyle;rounded=0;orthogonalLoop=1;jettySize=auto;html=1;strokeColor=light-dark(#ff0000, #ededed);" edge="1" parent="SY-MzMTitLkkKKeFqSy7-1" source="SY-MzMTitLkkKKeFqSy7-16" target="SY-MzMTitLkkKKeFqSy7-21">
          <mxGeometry relative="1" as="geometry">
            <mxPoint x="106" y="290" as="targetPoint" />
            <Array as="points">
              <mxPoint x="146" y="260" />
            </Array>
          </mxGeometry>
        </mxCell>
        <mxCell id="SY-MzMTitLkkKKeFqSy7-26" style="edgeStyle=orthogonalEdgeStyle;rounded=0;orthogonalLoop=1;jettySize=auto;html=1;exitX=1;exitY=0.5;exitDx=0;exitDy=0;strokeColor=light-dark(#ff0000, #ededed);" edge="1" parent="SY-MzMTitLkkKKeFqSy7-1" source="SY-MzMTitLkkKKeFqSy7-24">
          <mxGeometry relative="1" as="geometry">
            <mxPoint x="336" y="395" as="targetPoint" />
          </mxGeometry>
        </mxCell>
        <mxCell id="SY-MzMTitLkkKKeFqSy7-9" value="Sistema" style="swimlane;startSize=20;" vertex="1" parent="SY-MzMTitLkkKKeFqSy7-1">
          <mxGeometry x="310" width="370" height="780" as="geometry">
            <mxRectangle x="310" width="40" height="720" as="alternateBounds" />
          </mxGeometry>
        </mxCell>
        <mxCell id="SY-MzMTitLkkKKeFqSy7-10" style="edgeStyle=orthogonalEdgeStyle;rounded=0;orthogonalLoop=1;jettySize=auto;html=1;exitX=0;exitY=0.5;exitDx=0;exitDy=0;entryX=1;entryY=0.5;entryDx=0;entryDy=0;strokeColor=light-dark(#ff0000, #ededed);" edge="1" parent="SY-MzMTitLkkKKeFqSy7-9" source="SY-MzMTitLkkKKeFqSy7-11" target="SY-MzMTitLkkKKeFqSy7-14">
          <mxGeometry relative="1" as="geometry" />
        </mxCell>
        <mxCell id="SY-MzMTitLkkKKeFqSy7-11" value="Mostrar apartado" style="rounded=1;whiteSpace=wrap;html=1;arcSize=40;fontColor=#000000;fillColor=#ffffc0;strokeColor=#ff0000;" vertex="1" parent="SY-MzMTitLkkKKeFqSy7-9">
          <mxGeometry x="250" y="130" width="110" height="50" as="geometry" />
        </mxCell>
        <mxCell id="SY-MzMTitLkkKKeFqSy7-12" value="" style="ellipse;html=1;shape=endState;fillColor=#000000;strokeColor=#ff0000;" vertex="1" parent="SY-MzMTitLkkKKeFqSy7-9">
          <mxGeometry x="189" y="730" width="30" height="30" as="geometry" />
        </mxCell>
        <mxCell id="SY-MzMTitLkkKKeFqSy7-13" style="edgeStyle=orthogonalEdgeStyle;rounded=0;orthogonalLoop=1;jettySize=auto;html=1;exitX=0.5;exitY=1;exitDx=0;exitDy=0;" edge="1" parent="SY-MzMTitLkkKKeFqSy7-9">
          <mxGeometry relative="1" as="geometry">
            <mxPoint x="86" y="360" as="sourcePoint" />
            <mxPoint x="86" y="360" as="targetPoint" />
          </mxGeometry>
        </mxCell>
        <mxCell id="SY-MzMTitLkkKKeFqSy7-14" value="Mostrar listado eventos" style="rounded=1;whiteSpace=wrap;html=1;arcSize=40;fontColor=#000000;fillColor=#ffffc0;strokeColor=#ff0000;" vertex="1" parent="SY-MzMTitLkkKKeFqSy7-9">
          <mxGeometry x="34" y="130" width="120" height="50" as="geometry" />
        </mxCell>
        <mxCell id="SY-MzMTitLkkKKeFqSy7-16" value="Mostrar formulario" style="rounded=1;whiteSpace=wrap;html=1;arcSize=40;fontColor=#000000;fillColor=#ffffc0;strokeColor=#ff0000;" vertex="1" parent="SY-MzMTitLkkKKeFqSy7-9">
          <mxGeometry x="126" y="250" width="174" height="50" as="geometry" />
        </mxCell>
        <mxCell id="SY-MzMTitLkkKKeFqSy7-28" value="¿Datos válidos?" style="rhombus;whiteSpace=wrap;html=1;fontColor=#000000;fillColor=#ffffc0;strokeColor=#ff0000;" vertex="1" parent="SY-MzMTitLkkKKeFqSy7-9">
          <mxGeometry x="226" y="370" width="134" height="80" as="geometry" />
        </mxCell>
        <mxCell id="SY-MzMTitLkkKKeFqSy7-30" value="si" style="edgeStyle=orthogonalEdgeStyle;html=1;align=left;verticalAlign=top;endArrow=open;endSize=8;strokeColor=#ff0000;rounded=0;" edge="1" parent="SY-MzMTitLkkKKeFqSy7-9" source="SY-MzMTitLkkKKeFqSy7-28" target="SY-MzMTitLkkKKeFqSy7-46">
          <mxGeometry x="-1" relative="1" as="geometry">
            <mxPoint x="276" y="520" as="targetPoint" />
          </mxGeometry>
        </mxCell>
        <mxCell id="SY-MzMTitLkkKKeFqSy7-33" style="edgeStyle=orthogonalEdgeStyle;rounded=0;orthogonalLoop=1;jettySize=auto;html=1;strokeColor=light-dark(#ff0000, #ededed);" edge="1" parent="SY-MzMTitLkkKKeFqSy7-9" source="SY-MzMTitLkkKKeFqSy7-32" target="SY-MzMTitLkkKKeFqSy7-28">
          <mxGeometry relative="1" as="geometry" />
        </mxCell>
        <mxCell id="SY-MzMTitLkkKKeFqSy7-32" value="Validar datos" style="rounded=1;whiteSpace=wrap;html=1;arcSize=40;fontColor=#000000;fillColor=#ffffc0;strokeColor=#ff0000;" vertex="1" parent="SY-MzMTitLkkKKeFqSy7-9">
          <mxGeometry x="26" y="380" width="114" height="30" as="geometry" />
        </mxCell>
        <mxCell id="SY-MzMTitLkkKKeFqSy7-31" value="Mostrar mensaje error" style="rounded=1;whiteSpace=wrap;html=1;arcSize=40;fontColor=#000000;fillColor=#ffffc0;strokeColor=#ff0000;" vertex="1" parent="SY-MzMTitLkkKKeFqSy7-9">
          <mxGeometry x="34" y="310" width="174" height="50" as="geometry" />
        </mxCell>
        <mxCell id="SY-MzMTitLkkKKeFqSy7-51" style="edgeStyle=orthogonalEdgeStyle;rounded=0;orthogonalLoop=1;jettySize=auto;html=1;exitX=0.5;exitY=1;exitDx=0;exitDy=0;entryX=0.5;entryY=0;entryDx=0;entryDy=0;strokeColor=#FF0808;" edge="1" parent="SY-MzMTitLkkKKeFqSy7-9" source="SY-MzMTitLkkKKeFqSy7-46" target="SY-MzMTitLkkKKeFqSy7-49">
          <mxGeometry relative="1" as="geometry" />
        </mxCell>
        <mxCell id="SY-MzMTitLkkKKeFqSy7-46" value="Mostrar mensaje de éxito" style="rounded=1;whiteSpace=wrap;html=1;arcSize=40;fontColor=#000000;fillColor=#ffffc0;strokeColor=#ff0000;" vertex="1" parent="SY-MzMTitLkkKKeFqSy7-9">
          <mxGeometry x="140" y="500" width="128" height="40" as="geometry" />
        </mxCell>
        <mxCell id="SY-MzMTitLkkKKeFqSy7-52" style="edgeStyle=orthogonalEdgeStyle;rounded=0;orthogonalLoop=1;jettySize=auto;html=1;exitX=0.5;exitY=1;exitDx=0;exitDy=0;entryX=0.5;entryY=0;entryDx=0;entryDy=0;strokeColor=light-dark(#ff0000, #ededed);" edge="1" parent="SY-MzMTitLkkKKeFqSy7-9" source="SY-MzMTitLkkKKeFqSy7-49" target="SY-MzMTitLkkKKeFqSy7-50">
          <mxGeometry relative="1" as="geometry" />
        </mxCell>
        <mxCell id="SY-MzMTitLkkKKeFqSy7-49" value="Guardar evento" style="rounded=1;whiteSpace=wrap;html=1;arcSize=40;fontColor=#000000;fillColor=#ffffc0;strokeColor=#ff0000;" vertex="1" parent="SY-MzMTitLkkKKeFqSy7-9">
          <mxGeometry x="140" y="570" width="128" height="40" as="geometry" />
        </mxCell>
        <mxCell id="SY-MzMTitLkkKKeFqSy7-53" style="edgeStyle=orthogonalEdgeStyle;rounded=0;orthogonalLoop=1;jettySize=auto;html=1;exitX=0.5;exitY=1;exitDx=0;exitDy=0;strokeColor=light-dark(#ff0000, #ededed);" edge="1" parent="SY-MzMTitLkkKKeFqSy7-9" source="SY-MzMTitLkkKKeFqSy7-50" target="SY-MzMTitLkkKKeFqSy7-12">
          <mxGeometry relative="1" as="geometry" />
        </mxCell>
        <mxCell id="SY-MzMTitLkkKKeFqSy7-50" value="Redirigir a listado de eventos" style="rounded=1;whiteSpace=wrap;html=1;arcSize=40;fontColor=#000000;fillColor=#ffffc0;strokeColor=#ff0000;" vertex="1" parent="SY-MzMTitLkkKKeFqSy7-9">
          <mxGeometry x="140" y="640" width="128" height="40" as="geometry" />
        </mxCell>
      </root>
    </mxGraphModel>
  </diagram>
</mxfile>
